<?xml version="1.0" encoding="iso-8859-1" standalone="no"?> 
<?xml-stylesheet href="master_thesis.css" type="text/css"?> 
<svg xmlns="http://www.w3.org/2000/svg" xmlns:xlink="http://www.w3.org/1999/xlink" width="1054.75735pt" height="225.27132pt" viewBox="-527.37868 -207.44658 1054.75735 225.27132 "> 
<g transform="translate(0,
17.82474 ) scale(1,-1) translate(0,207.44658 )"> 
                                                                                                    <g stroke="#000" fill="#000">
 <g stroke-width="0.4">
 <path d=" M -142.353 -17.62474 h 284.706 v 35.24948 h -284.706 Z  " fill="none"/>
 <g transform="translate(-138.43681,-2.96658)">
 <g fill="#000">
 <text style="stroke:none" transform="scale(1,-1) translate(138.43681,0)" text-anchor="middle"  font-size="12"> 
<g fill="#000">
 <g stroke="none"> PSD2, EBA, GDPR, standards and recommendations</g> </g>
 </text> 
</g>
 </g>
 <path d=" M -35.2495 -74.53024 h 70.499 v 35.24948 h -70.499 Z  " fill="none"/>
 <g transform="translate(-25.2123,-59.87209)">
 <g fill="#000">
 <text style="stroke:none" transform="scale(1,-1) translate(25.2123,0)" text-anchor="middle"  font-size="12"> 
<g fill="#000">
 <g stroke="none"> Regulator </g> </g>
 </text> 
</g>
 </g>
 <path d=" M -527.17868 -143.14436 h 463.07645 v 39.76138 h -463.07645 Z  " fill="none"/>
 <g transform="translate(-523.2625,-136.22818)">
 <g fill="#000">
 <text style="stroke:none" transform="scale(1,-1) translate(227.62204,0)" text-anchor="middle"  font-size="12"> 
<g fill="#000">
 <g stroke="none"> <draw:frame draw:name="master_thesis0x.png" text:anchor-type="as-char" draw:z-index="0" ><draw:image 
xlink:href="Pictures/master_thesis0x.png"  
xlink:type="simple" xlink:show="embed" xlink:actuate="onLoad" /><!--draw:name="  " --></draw:frame>                                                                                             </g> </g>
 </text> 
</g>
 </g>
 <path d=" M 64.10223 -143.14436 h 463.07645 v 39.76138 h -463.07645 Z  " fill="none"/>
 <g transform="translate(68.01842,-136.22818)">
 <g fill="#000">
 <text style="stroke:none" transform="scale(1,-1) translate(227.62204,0)" text-anchor="middle"  font-size="12"> 
<g fill="#000">
 <g stroke="none"> <draw:frame draw:name="master_thesis1x.png" text:anchor-type="as-char" draw:z-index="0" ><draw:image 
xlink:href="Pictures/master_thesis1x.png"  
xlink:type="simple" xlink:show="embed" xlink:actuate="onLoad" /><!--draw:name="  " --></draw:frame>                                                                                       </g> </g>
 </text> 
</g>
 </g>
 <path d=" M -35.2495 -207.24658 h 70.499 v 35.24948 h -70.499 Z  " fill="none"/>
 <g transform="translate(-11.66524,-193.75508)">
 <g fill="#000">
 <text style="stroke:none" transform="scale(1,-1) translate(11.66524,0)" text-anchor="middle"  font-size="12"> 
<g fill="#000">
 <g stroke="none"> PSU </g> </g>
 </text> 
</g>
 </g>
 <path d=" M 0.0 -17.82474 L 0.0 -36.6808  " fill="none"/>
 <g transform="matrix(0.0,-1.0,1.0,0.0,0.0,-36.6808)">
 <path d=" M 2.39996 0.0 C 1.39998 0.2 -0.4 0.59999 -1.59998 1.49997 C -0.59999 0.4 -0.59999 -0.4 -1.59998 -1.49997 C -0.4 -0.59999 1.39998 -0.2 2.39996 0.0 Z  " stroke="none"/>
  </g>
 <path d=" M 35.4495 -64.8402 L 203.89032 -102.65727  " fill="none"/>
 <g transform="matrix(0.97565,-0.21906,0.21906,0.97565,203.8903,-102.65726)">
 <path d=" M 2.39996 0.0 C 1.39998 0.2 -0.4 0.59999 -1.59998 1.49997 C -0.59999 0.4 -0.59999 -0.4 -1.59998 -1.49997 C -0.4 -0.59999 1.39998 -0.2 2.39996 0.0 Z  " stroke="none"/>
  </g>
 <path d=" M -35.4495 -64.8402 L -203.89032 -102.65727  " fill="none"/>
 <g transform="matrix(-0.97565,-0.21906,0.21906,-0.97565,-203.8903,-102.65726)">
 <path d=" M 2.39996 0.0 C 1.39998 0.2 -0.4 0.59999 -1.59998 1.49997 C -0.59999 0.4 -0.59999 -0.4 -1.59998 -1.49997 C -0.4 -0.59999 1.39998 -0.2 2.39996 0.0 Z  " stroke="none"/>
  </g>
 <path d=" M 61.50227 -123.26367 L -61.50227 -123.26367  " fill="none"/>
 <g transform="translate(61.50227,-123.26367)">
 <path d=" M 2.39996 0.0 C 1.39998 0.2 -0.4 0.59999 -1.59998 1.49997 C -0.59999 0.4 -0.59999 -0.4 -1.59998 -1.49997 C -0.4 -0.59999 1.39998 -0.2 2.39996 0.0 Z  " stroke="none"/>
  </g>
 <g transform="matrix(-1.0,0.0,0.0,-1.0,-61.50227,-123.26367)">
 <path d=" M 2.39996 0.0 C 1.39998 0.2 -0.4 0.59999 -1.59998 1.49997 C -0.59999 0.4 -0.59999 -0.4 -1.59998 -1.49997 C -0.4 -0.59999 1.39998 -0.2 2.39996 0.0 Z  " stroke="none"/>
  </g>
 <g transform="translate(-16.54375,-135.57983)">
 <g fill="#000">
 <text style="stroke:none" transform="scale(1,-1) translate(16.54375,0)" text-anchor="middle"  font-size="12"> 
<g fill="#000">
 <g stroke="none"> <tspan font-family="cmmi" font-size="12">P SD</tspan><tspan font-family="cmr" font-size="12">2</tspan> </g> </g>
 </text> 
</g>
 </g>
 <path d=" M 206.26952 -143.34436 L 37.79105 -181.16374  " fill="none"/>
 <g transform="matrix(-0.97566,-0.219,0.219,-0.97566,37.79105,-181.16373)">
 <path d=" M 2.39996 0.0 C 1.39998 0.2 -0.4 0.59999 -1.59998 1.49997 C -0.59999 0.4 -0.59999 -0.4 -1.59998 -1.49997 C -0.4 -0.59999 1.39998 -0.2 2.39996 0.0 Z  " stroke="none"/>
  </g>
 <g transform="translate(124.9757,-174.833)">
 <g fill="#000">
 <text style="stroke:none" transform="scale(1,-1) translate(40.58598,0)" text-anchor="middle"  font-size="12"> 
<g fill="#000">
 <g stroke="none"> <tspan font-family="cmmi" font-size="12">P SD</tspan><tspan font-family="cmr" font-size="12">2</tspan>  <tspan font-family="cmmi" font-size="12">Consent</tspan> </g> </g>
 </text> 
</g>
 </g>
 <path d=" M -206.26952 -143.34436 L -37.79105 -181.16374  " fill="none"/>
 <g transform="matrix(0.97566,-0.219,0.219,0.97566,-37.79105,-181.16373)">
 <path d=" M 2.39996 0.0 C 1.39998 0.2 -0.4 0.59999 -1.59998 1.49997 C -0.59999 0.4 -0.59999 -0.4 -1.59998 -1.49997 C -0.4 -0.59999 1.39998 -0.2 2.39996 0.0 Z  " stroke="none"/>
  </g>
 <g transform="translate(-150.9771,-174.833)">
 <g fill="#000">
 <text style="stroke:none" transform="scale(1,-1) translate(13.0007,0)" text-anchor="middle"  font-size="12"> 
<g fill="#000">
 <g stroke="none"> <tspan font-family="cmmi" font-size="12">SCA</tspan> </g> </g>
 </text> 
</g>
 </g>
 </g>
 </g>
 
                                                                                                                                                                                                         </g> 
</svg> 
