<?xml version="1.0" encoding="iso-8859-1" standalone="no"?> 
<?xml-stylesheet href="master_thesis.css" type="text/css"?> 
<svg xmlns="http://www.w3.org/2000/svg" xmlns:xlink="http://www.w3.org/1999/xlink" width="459.39703pt" height="185.10995pt" viewBox="-81.65994 -110.37971 459.39703 185.10995 "> 
<g transform="translate(0, 74.73024 ) scale(1,-1) translate(0,110.37971 )"> 
                     <g stroke="#000" fill="#000">
 <g stroke-width="0.4">
 <path d=" M -81.45995 -17.62474 h 162.91989 v 35.24948 h -162.91989 Z  " fill="none"/>
 <g transform="translate(-77.54376,-4.13324)">
 <g fill="#000">
 <text style="stroke:none" transform="scale(1,-1) translate(77.54376,0)" text-anchor="middle"  font-size="12"> 
<g fill="#000">
 <g stroke="none"> Conversational API of a Bank</g> </g>
 </text> 
</g>
 </g>
 <path d=" M -59.8032 39.28076 h 119.60641 v 35.24948 h -119.60641 Z  " fill="none"/>
 <g transform="translate(-55.88702,52.77226)">
 <g fill="#000">
 <text style="stroke:none" transform="scale(1,-1) translate(55.88702,0)" text-anchor="middle"  font-size="12"> 
<g fill="#000">
 <g stroke="none"> Public API of a Bank </g> </g>
 </text> 
</g>
 </g>
 <path d=" M -56.33218 -74.53024 h 112.66437 v 35.24948 h -112.66437 Z  " fill="none"/>
 <g transform="translate(-52.416,-59.87209)">
 <g fill="#000">
 <text style="stroke:none" transform="scale(1,-1) translate(52.416,0)" text-anchor="middle"  font-size="12"> 
<g fill="#000">
 <g stroke="none"> Knowledge database </g> </g>
 </text> 
</g>
 </g>
 <path d=" M 110.31268 -17.62474 h 92.75433 v 35.24948 h -92.75433 Z  " fill="none"/>
 <g transform="translate(114.22887,-2.96658)">
 <g fill="#000">
 <text style="stroke:none" transform="scale(1,-1) translate(42.46098,0)" text-anchor="middle"  font-size="12"> 
<g fill="#000">
 <g stroke="none"> Analytics engine </g> </g>
 </text> 
</g>
 </g>
 <path d=" M 231.91975 -17.62474 h 145.61734 v 35.24948 h -145.61734 Z  " fill="none"/>
 <g transform="translate(235.83594,-4.13324)">
 <g fill="#000">
 <text style="stroke:none" transform="scale(1,-1) translate(68.89249,0)" text-anchor="middle"  font-size="12"> 
<g fill="#000">
 <g stroke="none"> ML&#x0026;AI Recommendations </g> </g>
 </text> 
</g>
 </g>
 <path d=" M 268.30612 -110.17972 h 72.8446 v 35.24948 h -72.8446 Z  " fill="none"/>
 <g transform="translate(272.2223,-96.68822)">
 <g fill="#000">
 <text style="stroke:none" transform="scale(1,-1) translate(32.50612,0)" text-anchor="middle"  font-size="12"> 
<g fill="#000">
 <g stroke="none"> Notifications </g> </g>
 </text> 
</g>
 </g>
 <path d=" M 0.0 17.82474 L 0.0 36.6808  " fill="none"/>
 <g transform="matrix(0.0,1.0,-1.0,0.0,0.0,36.6808)">
 <path d=" M 2.39996 0.0 C 1.39998 0.2 -0.4 0.59999 -1.59998 1.49997 C -0.59999 0.4 -0.59999 -0.4 -1.59998 -1.49997 C -0.4 -0.59999 1.39998 -0.2 2.39996 0.0 Z  " stroke="none"/>
  </g>
 <path d=" M 0.0 -17.82474 L 0.0 -36.6808  " fill="none"/>
 <g transform="matrix(0.0,-1.0,1.0,0.0,0.0,-36.6808)">
 <path d=" M 2.39996 0.0 C 1.39998 0.2 -0.4 0.59999 -1.59998 1.49997 C -0.59999 0.4 -0.59999 -0.4 -1.59998 -1.49997 C -0.4 -0.59999 1.39998 -0.2 2.39996 0.0 Z  " stroke="none"/>
  </g>
 <path d=" M 81.65994 0.0 L 107.71272 0.0  " fill="none"/>
 <g transform="translate(107.71272,0.0)">
 <path d=" M 2.39996 0.0 C 1.39998 0.2 -0.4 0.59999 -1.59998 1.49997 C -0.59999 0.4 -0.59999 -0.4 -1.59998 -1.49997 C -0.4 -0.59999 1.39998 -0.2 2.39996 0.0 Z  " stroke="none"/>
  </g>
 <path d=" M 203.26701 0.0 L 229.3198 0.0  " fill="none"/>
 <g transform="translate(229.3198,0.0)">
 <path d=" M 2.39996 0.0 C 1.39998 0.2 -0.4 0.59999 -1.59998 1.49997 C -0.59999 0.4 -0.59999 -0.4 -1.59998 -1.49997 C -0.4 -0.59999 1.39998 -0.2 2.39996 0.0 Z  " stroke="none"/>
  </g>
 <path d=" M 304.72842 -17.82474 L 304.72842 -72.33028  " fill="none"/>
 <g transform="matrix(0.0,-1.0,1.0,0.0,304.72842,-72.33028)">
 <path d=" M 2.39996 0.0 C 1.39998 0.2 -0.4 0.59999 -1.59998 1.49997 C -0.59999 0.4 -0.59999 -0.4 -1.59998 -1.49997 C -0.4 -0.59999 1.39998 -0.2 2.39996 0.0 Z  " stroke="none"/>
  </g>
 </g>
 </g>
 
                                                                                                                     </g> 
</svg> 
