<?xml version="1.0" encoding="iso-8859-1" standalone="no"?> 
<?xml-stylesheet href="master_thesis.css" type="text/css"?> 
<svg xmlns="http://www.w3.org/2000/svg" xmlns:xlink="http://www.w3.org/1999/xlink" width="388.39822pt" height="149.46048pt" viewBox="-43.86746 -74.73024 388.39822 149.46048 "> 
<g transform="translate(0, 74.73024 ) scale(1,-1) translate(0,74.73024 )"> 
           <g stroke="#000" fill="#000">
 <g stroke-width="0.4">
 <path d=" M -43.66747 -17.62474 h 87.33493 v 35.24948 h -87.33493 Z  " fill="none"/>
 <g transform="translate(-39.75128,-4.13324)">
 <g fill="#000">
 <text style="stroke:none" transform="scale(1,-1) translate(39.75128,0)" text-anchor="middle"  font-size="12"> 
<g fill="#000">
 <g stroke="none"> User of services</g> </g>
 </text> 
</g>
 </g>
 <path d=" M 69.31807 39.28076 h 145.89142 v 35.24948 h -145.89142 Z  " fill="none"/>
 <g transform="translate(73.23425,53.93892)">
 <g fill="#000">
 <text style="stroke:none" transform="scale(1,-1) translate(69.02953,0)" text-anchor="middle"  font-size="12"> 
<g fill="#000">
 <g stroke="none"> Internet or mobile banking</g> </g>
 </text> 
</g>
 </g>
 <path d=" M 63.37622 -74.53024 h 157.77512 v 35.24948 h -157.77512 Z  " fill="none"/>
 <g transform="translate(67.2924,-59.87209)">
 <g fill="#000">
 <text style="stroke:none" transform="scale(1,-1) translate(74.97137,0)" text-anchor="middle"  font-size="12"> 
<g fill="#000">
 <g stroke="none"> Third-party service providers</g> </g>
 </text> 
</g>
 </g>
 <path d=" M 224.72435 -17.62474 h 119.60641 v 35.24948 h -119.60641 Z  " fill="none"/>
 <g transform="translate(228.64053,-4.13324)">
 <g fill="#000">
 <text style="stroke:none" transform="scale(1,-1) translate(55.88702,0)" text-anchor="middle"  font-size="12"> 
<g fill="#000">
 <g stroke="none"> Public API of a Bank </g> </g>
 </text> 
</g>
 </g>
 <path d=" M 43.86746 17.52663 L 95.49973 38.18913  " fill="none"/>
 <g transform="matrix(0.92838,0.37152,-0.37152,0.92838,95.49971,38.18913)">
 <path d=" M 2.39996 0.0 C 1.39998 0.2 -0.4 0.59999 -1.59998 1.49997 C -0.59999 0.4 -0.59999 -0.4 -1.59998 -1.49997 C -0.4 -0.59999 1.39998 -0.2 2.39996 0.0 Z  " stroke="none"/>
  </g>
 <path d=" M 43.86746 -17.52663 L 95.49973 -38.18913  " fill="none"/>
 <g transform="matrix(0.92838,-0.37152,0.37152,0.92838,95.49971,-38.18913)">
 <path d=" M 2.39996 0.0 C 1.39998 0.2 -0.4 0.59999 -1.59998 1.49997 C -0.59999 0.4 -0.59999 -0.4 -1.59998 -1.49997 C -0.4 -0.59999 1.39998 -0.2 2.39996 0.0 Z  " stroke="none"/>
  </g>
 <path d=" M 186.81229 39.08076 L 237.76314 18.71541  " fill="none"/>
 <g transform="matrix(0.92853,-0.37112,0.37112,0.92853,237.76312,18.71542)">
 <path d=" M 2.39996 0.0 C 1.39998 0.2 -0.4 0.59999 -1.59998 1.49997 C -0.59999 0.4 -0.59999 -0.4 -1.59998 -1.49997 C -0.4 -0.59999 1.39998 -0.2 2.39996 0.0 Z  " stroke="none"/>
  </g>
 <path d=" M 186.81229 -39.08076 L 237.76314 -18.71541  " fill="none"/>
 <g transform="matrix(0.92853,0.37112,-0.37112,0.92853,237.76312,-18.71542)">
 <path d=" M 2.39996 0.0 C 1.39998 0.2 -0.4 0.59999 -1.59998 1.49997 C -0.59999 0.4 -0.59999 -0.4 -1.59998 -1.49997 C -0.4 -0.59999 1.39998 -0.2 2.39996 0.0 Z  " stroke="none"/>
  </g>
 </g>
 </g>
 
                                                                                                   </g> 
</svg> 
