<?xml version="1.0" encoding="iso-8859-1" standalone="no"?> 
<?xml-stylesheet href="master_thesis.css" type="text/css"?> 
<svg xmlns="http://www.w3.org/2000/svg" xmlns:xlink="http://www.w3.org/1999/xlink" width="298.52103pt" height="106.78136pt" viewBox="-35.4495 -88.95662 298.52103 106.78136 "> 
<g transform="translate(0, 17.82474 ) scale(1,-1) translate(0,88.95662 )"> 
         <g stroke="#000" fill="#000">
 <g stroke-width="0.4">
 <path d=" M -35.2495 -17.62474 h 70.499 v 35.24948 h -70.499 Z  " fill="none"/>
 <g transform="translate(-11.61699,-4.13324)">
 <g fill="#000">
 <text style="stroke:none" transform="scale(1,-1) translate(11.61699,0)" text-anchor="middle"  font-size="12"> 
<g fill="#000">
 <g stroke="none"> User</g> </g>
 </text> 
</g>
 </g>
 <path d=" M 78.56152 -17.62474 h 70.499 v 35.24948 h -70.499 Z  " fill="none"/>
 <g transform="translate(90.4742,-4.13324)">
 <g fill="#000">
 <text style="stroke:none" transform="scale(1,-1) translate(23.33682,0)" text-anchor="middle"  font-size="12"> 
<g fill="#000">
 <g stroke="none"> Chat-bot</g> </g>
 </text> 
</g>
 </g>
 <path d=" M 192.37254 -17.62474 h 70.499 v 35.24948 h -70.499 Z  " fill="none"/>
 <g transform="translate(213.67206,-4.13324)">
 <g fill="#000">
 <text style="stroke:none" transform="scale(1,-1) translate(13.94998,0)" text-anchor="middle"  font-size="12"> 
<g fill="#000">
 <g stroke="none"> CRM </g> </g>
 </text> 
</g>
 </g>
 <path d=" M 78.56152 -88.75662 h 70.499 v 35.24948 h -70.499 Z  " fill="none"/>
 <g transform="translate(90.03456,-75.26512)">
 <g fill="#000">
 <text style="stroke:none" transform="scale(1,-1) translate(23.77646,0)" text-anchor="middle"  font-size="12"> 
<g fill="#000">
 <g stroke="none"> Database</g> </g>
 </text> 
</g>
 </g>
 <path d=" M 37.84946 0.0 L 75.96156 0.0  " fill="none"/>
 <g transform="matrix(-1.0,0.0,0.0,-1.0,37.84946,0.0)">
 <path d=" M 2.39996 0.0 C 1.39998 0.2 -0.4 0.59999 -1.59998 1.49997 C -0.59999 0.4 -0.59999 -0.4 -1.59998 -1.49997 C -0.4 -0.59999 1.39998 -0.2 2.39996 0.0 Z  " stroke="none"/>
  </g>
 <g transform="translate(75.96156,0.0)">
 <path d=" M 2.39996 0.0 C 1.39998 0.2 -0.4 0.59999 -1.59998 1.49997 C -0.59999 0.4 -0.59999 -0.4 -1.59998 -1.49997 C -0.4 -0.59999 1.39998 -0.2 2.39996 0.0 Z  " stroke="none"/>
  </g>
 <path d=" M 151.66048 0.0 L 189.77258 0.0  " fill="none"/>
 <g transform="matrix(-1.0,0.0,0.0,-1.0,151.66048,0.0)">
 <path d=" M 2.39996 0.0 C 1.39998 0.2 -0.4 0.59999 -1.59998 1.49997 C -0.59999 0.4 -0.59999 -0.4 -1.59998 -1.49997 C -0.4 -0.59999 1.39998 -0.2 2.39996 0.0 Z  " stroke="none"/>
  </g>
 <g transform="translate(189.77258,0.0)">
 <path d=" M 2.39996 0.0 C 1.39998 0.2 -0.4 0.59999 -1.59998 1.49997 C -0.59999 0.4 -0.59999 -0.4 -1.59998 -1.49997 C -0.4 -0.59999 1.39998 -0.2 2.39996 0.0 Z  " stroke="none"/>
  </g>
 <path d=" M 113.81102 -20.2247 L 113.81102 -50.90718  " fill="none"/>
 <g transform="matrix(0.0,1.0,-1.0,0.0,113.81102,-20.2247)">
 <path d=" M 2.39996 0.0 C 1.39998 0.2 -0.4 0.59999 -1.59998 1.49997 C -0.59999 0.4 -0.59999 -0.4 -1.59998 -1.49997 C -0.4 -0.59999 1.39998 -0.2 2.39996 0.0 Z  " stroke="none"/>
  </g>
 <g transform="matrix(0.0,-1.0,1.0,0.0,113.81102,-50.90718)">
 <path d=" M 2.39996 0.0 C 1.39998 0.2 -0.4 0.59999 -1.59998 1.49997 C -0.59999 0.4 -0.59999 -0.4 -1.59998 -1.49997 C -0.4 -0.59999 1.39998 -0.2 2.39996 0.0 Z  " stroke="none"/>
  </g>
 <path d=" M 151.66048 -71.13188 L 227.62204 -71.13188 L 227.62204 -20.2247  " fill="none"/>
 <g transform="matrix(-1.0,0.0,0.0,-1.0,151.66048,-71.13188)">
 <path d=" M 2.39996 0.0 C 1.39998 0.2 -0.4 0.59999 -1.59998 1.49997 C -0.59999 0.4 -0.59999 -0.4 -1.59998 -1.49997 C -0.4 -0.59999 1.39998 -0.2 2.39996 0.0 Z  " stroke="none"/>
  </g>
 <g transform="matrix(0.0,1.0,-1.0,0.0,227.62204,-20.2247)">
 <path d=" M 2.39996 0.0 C 1.39998 0.2 -0.4 0.59999 -1.59998 1.49997 C -0.59999 0.4 -0.59999 -0.4 -1.59998 -1.49997 C -0.4 -0.59999 1.39998 -0.2 2.39996 0.0 Z  " stroke="none"/>
  </g>
 </g>
 </g>
 
                                                                            </g> 
</svg> 
