<?xml version="1.0" encoding="iso-8859-1" standalone="no"?> 
<?xml-stylesheet href="master_thesis.css" type="text/css"?> 
<svg xmlns="http://www.w3.org/2000/svg" xmlns:xlink="http://www.w3.org/1999/xlink" width="658.47156pt" height="197.8454pt" viewBox="-0.2 -19.54735 658.47156 197.8454 "> 
<g transform="translate(0, 178.29805 ) scale(1,-1) translate(0,19.54735 )"> 
<g stroke="#000" fill="#000">
 <g stroke-width="0.4">
 <g stroke-width="0.2">
 <g stroke="#808080" fill="#808080">
 <path d="  " fill="none"/>
 </g>
 </g>
 <g stroke-width="0.2">
 <g stroke="#808080" fill="#808080">
 <path d="  " fill="none"/>
 </g>
 </g>
 <path d=" M 0.45999 0.0 L 194.53513 0.0  " fill="none"/>
 <g transform="matrix(-1.0,0.0,0.0,-1.0,0.45999,0.0)">
 <g stroke-width="0.31999">
 <g stroke-dasharray="none" stroke-dashoffset="0.0">
 <g stroke-linecap="round">
 <g stroke-linejoin="round">
 <path d=" M -1.19998 1.59998 C -1.09998 0.99998 0.0 0.09999 0.29999 0.0 C 0.0 -0.09999 -1.09998 -0.99998 -1.19998 -1.59998  " fill="none"/>
 </g>
 </g>
 </g>
 </g>
  </g>
 <g transform="translate(194.53513,0.0)">
 <g stroke-width="0.31999">
 <g stroke-dasharray="none" stroke-dashoffset="0.0">
 <g stroke-linecap="round">
 <g stroke-linejoin="round">
 <path d=" M -1.19998 1.59998 C -1.09998 0.99998 0.0 0.09999 0.29999 0.0 C 0.0 -0.09999 -1.09998 -0.99998 -1.19998 -1.59998  " fill="none"/>
 </g>
 </g>
 </g>
 </g>
  </g>
 <path d=" M 97.49756 0.0 L 97.49756 159.99924  " fill="none"/>
 <g transform="matrix(0.0,1.0,-1.0,0.0,97.49756,159.99924)">
 <path d=" M 1.99997 0.0 L -1.19998 1.59998 L 0.0 0.0 L -1.19998 -1.59998  " stroke="none"/>
  </g>
 <clipPath id="pgfcp2"><path d=" M 0.0 0.0 L 194.99512 0.0 L 194.99512 161.9992 L 0.0 161.9992 Z  "/> </clipPath>
 <g clip-path="url(#pgfcp2)">
 <g stroke="#00f" fill="#00f">
 <path d=" M 0.0 56.91864 C 0.0 56.91864 59.25739 62.2823 73.12317 74.43207 C 86.98895 86.58183 83.0255 151.77563 99.935 144.48578 C 116.8445 137.19592 194.99512 21.89178 194.99512 21.89178  " fill="none"/>
 </g>
 <g stroke-dasharray="3.0,3.0" stroke-dashoffset="0.0">
 <path d=" M 0.0 56.91864 L 194.99512 56.91864 L 194.99512 56.91864  " fill="none"/>
 </g>
 <g stroke-dasharray="3.0,3.0" stroke-dashoffset="0.0">
 <path d=" M 0.0 144.48578 L 194.99512 144.48578 L 194.99512 144.48578  " fill="none"/>
 </g>
 <g stroke-dasharray="3.0,3.0" stroke-dashoffset="0.0">
 <path d=" M 0.0 21.89178 L 194.99512 21.89178 L 194.99512 21.89178  " fill="none"/>
 </g>
 </g>
 <g stroke="#00f" fill="#00f">
 <g stroke="#00f" fill="#00f">
 <g fill="#00c">
 <path d="  " fill="none"/>
 <g transform="translate(4.11618,61.70682)">
 <g fill="#00f">
 <text style="stroke:none" transform="scale(1,-1) translate(10.77098,0)" text-anchor="middle"  font-size="12"> 
<g fill="#00f">
 <g stroke="none"> 68%</g> </g>
 </text> 
</g>
 </g>
 <path d="  " fill="none"/>
 <g transform="translate(77.23935,78.54825)">
 <g fill="#00f">
 <text style="stroke:none" transform="scale(1,-1) translate(0.0,0)" text-anchor="middle"  font-size="12"> 
<g fill="#00f">
 <g stroke="none"> </g> </g>
 </text> 
</g>
 </g>
 <path d="  " fill="none"/>
 <g transform="translate(104.05118,149.27396)">
 <g fill="#00f">
 <text style="stroke:none" transform="scale(1,-1) translate(10.77098,0)" text-anchor="middle"  font-size="12"> 
<g fill="#00f">
 <g stroke="none"> 88%</g> </g>
 </text> 
</g>
 </g>
 <path d="  " fill="none"/>
 <g transform="translate(199.1113,26.67996)">
 <g fill="#00f">
 <text style="stroke:none" transform="scale(1,-1) translate(10.77098,0)" text-anchor="middle"  font-size="12"> 
<g fill="#00f">
 <g stroke="none"> 60%</g> </g>
 </text> 
</g>
 </g>
 <path d="  " fill="none"/>
 </g>
 </g>
 </g>
 <g transform="translate(199.1113,-13.29785)">
 <g fill="#000">
 <text style="stroke:none" transform="scale(1,-1) translate(227.62204,0)" text-anchor="middle"  font-size="12"> 
<g fill="#000">
 <g stroke="none"> <draw:frame draw:name="master_thesis2x.png" text:anchor-type="as-char" draw:z-index="0" ><draw:image 
xlink:href="Pictures/master_thesis2x.png"  
xlink:type="simple" xlink:show="embed" xlink:actuate="onLoad" /><!--draw:name="  " --></draw:frame>                                                                                       </g> </g>
 </text> 
</g>
 </g>
 <g transform="translate(29.67441,166.11539)">
 <g fill="#000">
 <text style="stroke:none" transform="scale(1,-1) translate(67.82315,0)" text-anchor="middle"  font-size="12"> 
<g fill="#000">
 <g stroke="none"> Customer satisfaction rate </g> </g>
 </text> 
</g>
 </g>
 </g>
 </g>
 
                                                                                                                                                                        </g> 
</svg> 
