<?xml version="1.0" encoding="iso-8859-1" standalone="no"?> 
<?xml-stylesheet href="master_thesis.css" type="text/css"?> 
<svg xmlns="http://www.w3.org/2000/svg" xmlns:xlink="http://www.w3.org/1999/xlink" width="722.63179pt" height="307.27515pt" viewBox="-118.1272 -247.36938 722.63179 307.27515 "> 
<g transform="translate(0,
59.90576 ) scale(1,-1) translate(0,247.36938 )"> 
                       <g stroke="#000" fill="#000">
 <g stroke-width="0.4">
 <path d=" M -35.2495 -17.62474 h 70.499 v 35.24948 h -70.499 Z  " fill="none"/>
 <g transform="translate(-26.3373,-2.96658)">
 <g fill="#000">
 <text style="stroke:none" transform="scale(1,-1) translate(26.3373,0)" text-anchor="middle"  font-size="12"> 
<g fill="#000">
 <g stroke="none"> Messenger</g> </g>
 </text> 
</g>
 </g>
 <path d=" M 72.0836 -17.62474 h 83.45483 v 35.24948 h -83.45483 Z  " fill="none"/>
 <g transform="translate(75.99979,-2.96658)">
 <g fill="#000">
 <text style="stroke:none" transform="scale(1,-1) translate(37.81123,0)" text-anchor="middle"  font-size="12"> 
<g fill="#000">
 <g stroke="none"> Data cleansing</g> </g>
 </text> 
</g>
 </g>
 <path d=" M -3.91618 -59.70576 h 463.07645 v 119.41153 h -463.07645 Z  " fill="none"/>
 <g transform="translate(0.0,-55.78958)">
 <g fill="#000">
 <text style="stroke:none" transform="scale(1,-1) translate(227.62204,0)" text-anchor="middle"  font-size="12"> 
<g fill="#000">
 <g stroke="none"> <draw:frame draw:name="master_thesis6x.png" text:anchor-type="as-char" draw:z-index="0" ><draw:image 
xlink:href="Pictures/master_thesis6x.png"  
xlink:type="simple" xlink:show="embed" xlink:actuate="onLoad" /><!--draw:name="  " --></draw:frame>
                                                Understanding                                                " --></draw:frame>
                                        (NLU )
" --></draw:frame>                                                                                                                    </g> </g>
 </text> 
</g>
 </g>
 <path d=" M 109.89484 -133.69171 h 463.07645 v 39.76138 h -463.07645 Z  " fill="none"/>
 <g transform="translate(113.81102,-126.77553)">
 <g fill="#000">
 <text style="stroke:none" transform="scale(1,-1) translate(227.62204,0)" text-anchor="middle"  font-size="12"> 
<g fill="#000">
 <g stroke="none"> <draw:frame draw:name="master_thesis7x.png" text:anchor-type="as-char" draw:z-index="0" ><draw:image 
xlink:href="Pictures/master_thesis7x.png"  
xlink:type="simple" xlink:show="embed" xlink:actuate="onLoad" /><!--draw:name="  " --></draw:frame>                                                                                             </g> </g>
 </text> 
</g>
 </g>
 <path d=" M 419.99458 -17.62474 h 70.499 v 35.24948 h -70.499 Z  " fill="none"/>
 <g transform="translate(429.21533,-2.96658)">
 <g fill="#000">
 <text style="stroke:none" transform="scale(1,-1) translate(26.02875,0)" text-anchor="middle"  font-size="12"> 
<g fill="#000">
 <g stroke="none"> Dialog log </g> </g>
 </text> 
</g>
 </g>
 <path d=" M 533.8056 -17.62474 h 70.499 v 35.24948 h -70.499 Z  " fill="none"/>
 <g transform="translate(544.87187,-2.96658)">
 <g fill="#000">
 <text style="stroke:none" transform="scale(1,-1) translate(24.18323,0)" text-anchor="middle"  font-size="12"> 
<g fill="#000">
 <g stroke="none"> Analytics </g> </g>
 </text> 
</g>
 </g>
 <path d=" M 109.89484 -247.16939 h 463.07645 v 39.0947 h -463.07645 Z  " fill="none"/>
 <g transform="translate(113.81102,-240.91989)">
 <g fill="#000">
 <text style="stroke:none" transform="scale(1,-1) translate(227.62204,0)" text-anchor="middle"  font-size="12"> 
<g fill="#000">
 <g stroke="none"> <draw:frame draw:name="master_thesis8x.png" text:anchor-type="as-char" draw:z-index="0" ><draw:image 
xlink:href="Pictures/master_thesis8x.png"  
xlink:type="simple" xlink:show="embed" xlink:actuate="onLoad" /><!--draw:name="  " --></draw:frame>                                                                                     </g> </g>
 </text> 
</g>
 </g>
 <path d=" M -117.7272 -173.51678 h 463.07645 v 119.41153 h -463.07645 Z  " fill="none"/>
 <g transform="translate(-113.81102,-169.6006)">
 <g fill="#000">
 <text style="stroke:none" transform="scale(1,-1) translate(227.62204,0)" text-anchor="middle"  font-size="12"> 
<g fill="#000">
 <g stroke="none"> <draw:frame draw:name="master_thesis11x.png" text:anchor-type="as-char" draw:z-index="0" ><draw:image 
xlink:href="Pictures/master_thesis11x.png"  
xlink:type="simple" xlink:show="embed" xlink:actuate="onLoad" /><!--draw:name="  " --></draw:frame>
                                                    Generator                                                    " --></draw:frame>
                                        (NLG  )
" --></draw:frame>                                                                                                                    </g> </g>
 </text> 
</g>
 </g>
 <path d=" M 35.4495 0.0 L 69.48364 0.0  " fill="none"/>
 <g transform="translate(69.48364,0.0)">
 <path d=" M 2.39996 0.0 C 1.39998 0.2 -0.4 0.59999 -1.59998 1.49997 C -0.59999 0.4 -0.59999 -0.4 -1.59998 -1.49997 C -0.4 -0.59999 1.39998 -0.2 2.39996 0.0 Z  " stroke="none"/>
  </g>
 <g transform="translate(38.68301,6.4495)">
 <g fill="#000">
 <text style="stroke:none" transform="scale(1,-1) translate(14.98354,0)" text-anchor="middle"  font-size="12"> 
<g fill="#000">
 <g stroke="none"> <tspan font-family="cmmi" font-size="12">Input</tspan> </g> </g>
 </text> 
</g>
 </g>
 <path d=" M 71.8836 0.0 L -1.71622 0.0  " fill="none"/>
 <g transform="matrix(-1.0,0.0,0.0,-1.0,-1.71622,0.0)">
 <path d=" M 2.39996 0.0 C 1.39998 0.2 -0.4 0.59999 -1.59998 1.49997 C -0.59999 0.4 -0.59999 -0.4 -1.59998 -1.49997 C -0.4 -0.59999 1.39998 -0.2 2.39996 0.0 Z  " stroke="none"/>
  </g>
 <path d=" M 459.36026 0.0 L 341.43306 0.0 L 341.43306 -91.33037  " fill="none"/>
 <g transform="matrix(0.0,-1.0,1.0,0.0,341.43306,-91.33037)">
 <path d=" M 2.39996 0.0 C 1.39998 0.2 -0.4 0.59999 -1.59998 1.49997 C -0.59999 0.4 -0.59999 -0.4 -1.59998 -1.49997 C -0.4 -0.59999 1.39998 -0.2 2.39996 0.0 Z  " stroke="none"/>
  </g>
 <g transform="translate(345.54924,-3.0)">
 <g fill="#000">
 <text style="stroke:none" transform="scale(1,-1) translate(27.04799,0)" text-anchor="middle"  font-size="12"> 
<g fill="#000">
 <g stroke="none"> <tspan font-family="cmmi" font-size="12">Keywords</tspan> </g> </g>
 </text> 
</g>
 </g>
 <path d=" M 573.17128 -113.81102 L 455.24408 -113.81102 L 455.24408 -20.2247  " fill="none"/>
 <g transform="matrix(0.0,1.0,-1.0,0.0,455.24408,-20.2247)">
 <path d=" M 2.39996 0.0 C 1.39998 0.2 -0.4 0.59999 -1.59998 1.49997 C -0.59999 0.4 -0.59999 -0.4 -1.59998 -1.49997 C -0.4 -0.59999 1.39998 -0.2 2.39996 0.0 Z  " stroke="none"/>
  </g>
 <path d=" M 490.69357 0.0 L 531.20564 0.0  " fill="none"/>
 <g transform="translate(531.20564,0.0)">
 <path d=" M 2.39996 0.0 C 1.39998 0.2 -0.4 0.59999 -1.59998 1.49997 C -0.59999 0.4 -0.59999 -0.4 -1.59998 -1.49997 C -0.4 -0.59999 1.39998 -0.2 2.39996 0.0 Z  " stroke="none"/>
  </g>
 <path d=" M 341.43306 -136.29167 L 341.43306 -205.47473  " fill="none"/>
 <g transform="matrix(0.0,1.0,-1.0,0.0,341.43306,-136.29167)">
 <path d=" M 2.39996 0.0 C 1.39998 0.2 -0.4 0.59999 -1.59998 1.49997 C -0.59999 0.4 -0.59999 -0.4 -1.59998 -1.49997 C -0.4 -0.59999 1.39998 -0.2 2.39996 0.0 Z  " stroke="none"/>
  </g>
 <g transform="matrix(0.0,-1.0,1.0,0.0,341.43306,-205.47473)">
 <path d=" M 2.39996 0.0 C 1.39998 0.2 -0.4 0.59999 -1.59998 1.49997 C -0.59999 0.4 -0.59999 -0.4 -1.59998 -1.49997 C -0.4 -0.59999 1.39998 -0.2 2.39996 0.0 Z  " stroke="none"/>
  </g>
 <path d=" M 573.17128 -113.81102 L 347.9492 -113.81102  " fill="none"/>
 <g transform="matrix(-1.0,0.0,0.0,-1.0,347.9492,-113.81102)">
 <path d=" M 2.39996 0.0 C 1.39998 0.2 -0.4 0.59999 -1.59998 1.49997 C -0.59999 0.4 -0.59999 -0.4 -1.59998 -1.49997 C -0.4 -0.59999 1.39998 -0.2 2.39996 0.0 Z  " stroke="none"/>
  </g>
 <g transform="translate(421.77689,-126.12718)">
 <g fill="#000">
 <text style="stroke:none" transform="scale(1,-1) translate(37.58337,0)" text-anchor="middle"  font-size="12"> 
<g fill="#000">
 <g stroke="none"> <tspan font-family="cmmi" font-size="12">Next</tspan>  <tspan font-family="cmmi" font-size="12">question</tspan> </g> </g>
 </text> 
</g>
 </g>
 <path d=" M -117.9272 -113.81102 L 0.0 -113.81102 L 0.0 -20.2247  " fill="none"/>
 <g transform="matrix(0.0,1.0,-1.0,0.0,0.0,-20.2247)">
 <path d=" M 2.39996 0.0 C 1.39998 0.2 -0.4 0.59999 -1.59998 1.49997 C -0.59999 0.4 -0.59999 -0.4 -1.59998 -1.49997 C -0.4 -0.59999 1.39998 -0.2 2.39996 0.0 Z  " stroke="none"/>
  </g>
 <g transform="translate(-41.18024,-116.74435)">
 <g fill="#000">
 <text style="stroke:none" transform="scale(1,-1) translate(18.53203,0)" text-anchor="middle"  font-size="12"> 
<g fill="#000">
 <g stroke="none"> <tspan font-family="cmmi" font-size="12">Output</tspan> </g> </g>
 </text> 
</g>
 </g>
 </g>
 </g>
 
                                                                                                                                          </g> 
</svg> 
