<?xml version="1.0" encoding="iso-8859-1" standalone="no"?> 
<?xml-stylesheet href="master_thesis.css" type="text/css"?> 
<svg xmlns="http://www.w3.org/2000/svg" xmlns:xlink="http://www.w3.org/1999/xlink" width="485.76949pt" height="156.65721pt" viewBox="-58.37715 -138.83247 485.76949 156.65721 "> 
<g transform="translate(0, 17.82474 ) scale(1,-1) translate(0,138.83247 )"> 
               </p>
               <g stroke="#000" fill="#000">
 <g stroke-width="0.4">
 <path d=" M -58.17715 -17.62474 h 116.35431 v 35.24948 h -116.35431 Z  " fill="none"/>
 <g transform="translate(-54.26097,-2.96658)">
 <g fill="#000">
 <text style="stroke:none" transform="scale(1,-1) translate(54.26097,0)" text-anchor="middle"  font-size="12"> 
<g fill="#000">
 <g stroke="none"> Front-office employee</g> </g>
 </text> 
</g>
 </g>
 <path d=" M -43.66747 -138.63248 h 87.33493 v 35.24948 h -87.33493 Z  " fill="none"/>
 <g transform="translate(-39.75128,-125.14098)">
 <g fill="#000">
 <text style="stroke:none" transform="scale(1,-1) translate(39.75128,0)" text-anchor="middle"  font-size="12"> 
<g fill="#000">
 <g stroke="none"> User of services </g> </g>
 </text> 
</g>
 </g>
 <path d=" M 87.02989 -17.62474 h 175.97195 v 35.24948 h -175.97195 Z  " fill="none"/>
 <g transform="translate(90.94608,-4.13324)">
 <g fill="#000">
 <text style="stroke:none" transform="scale(1,-1) translate(84.0698,0)" text-anchor="middle"  font-size="12"> 
<g fill="#000">
 <g stroke="none"> Bank’s middleware with ML&#x0026;AI</g> </g>
 </text> 
</g>
 </g>
 <path d=" M 74.08762 -138.63248 h 201.8565 v 35.24948 h -201.8565 Z  " fill="none"/>
 <g transform="translate(78.0038,-123.97432)">
 <g fill="#000">
 <text style="stroke:none" transform="scale(1,-1) translate(97.01207,0)" text-anchor="middle"  font-size="12"> 
<g fill="#000">
 <g stroke="none"> Third-party middleware with ML&#x0026;AI</g> </g>
 </text> 
</g>
 </g>
 <path d=" M 264.27245 -74.53024 h 162.91989 v 35.24948 h -162.91989 Z  " fill="none"/>
 <g transform="translate(268.18863,-61.03874)">
 <g fill="#000">
 <text style="stroke:none" transform="scale(1,-1) translate(77.54376,0)" text-anchor="middle"  font-size="12"> 
<g fill="#000">
 <g stroke="none"> Conversational API of a Bank </g> </g>
 </text> 
</g>
 </g>
 <path d=" M 285.92918 -17.62474 h 119.60641 v 35.24948 h -119.60641 Z  " fill="none"/>
 <g transform="translate(289.84537,-4.13324)">
 <g fill="#000">
 <text style="stroke:none" transform="scale(1,-1) translate(55.88702,0)" text-anchor="middle"  font-size="12"> 
<g fill="#000">
 <g stroke="none"> Public API of a Bank </g> </g>
 </text> 
</g>
 </g>
 <path d=" M 289.4002 -131.43575 h 112.66437 v 35.24948 h -112.66437 Z  " fill="none"/>
 <g transform="translate(293.31639,-116.77759)">
 <g fill="#000">
 <text style="stroke:none" transform="scale(1,-1) translate(52.416,0)" text-anchor="middle"  font-size="12"> 
<g fill="#000">
 <g stroke="none"> Knowledge database </g> </g>
 </text> 
</g>
 </g>
 <path d=" M 58.37715 0.0 L 84.42993 0.0  " fill="none"/>
 <g transform="translate(84.42993,0.0)">
 <path d=" M 2.39996 0.0 C 1.39998 0.2 -0.4 0.59999 -1.59998 1.49997 C -0.59999 0.4 -0.59999 -0.4 -1.59998 -1.49997 C -0.4 -0.59999 1.39998 -0.2 2.39996 0.0 Z  " stroke="none"/>
  </g>
 <path d=" M 25.77917 -103.183 L 147.28954 -19.18929  " fill="none"/>
 <g transform="matrix(0.82256,0.56857,-0.56857,0.82256,147.28952,-19.18929)">
 <path d=" M 2.39996 0.0 C 1.39998 0.2 -0.4 0.59999 -1.59998 1.49997 C -0.59999 0.4 -0.59999 -0.4 -1.59998 -1.49997 C -0.4 -0.59999 1.39998 -0.2 2.39996 0.0 Z  " stroke="none"/>
  </g>
 <path d=" M 43.86746 -121.00774 L 71.48766 -121.00774  " fill="none"/>
 <g transform="translate(71.48766,-121.00774)">
 <path d=" M 2.39996 0.0 C 1.39998 0.2 -0.4 0.59999 -1.59998 1.49997 C -0.59999 0.4 -0.59999 -0.4 -1.59998 -1.49997 C -0.4 -0.59999 1.39998 -0.2 2.39996 0.0 Z  " stroke="none"/>
  </g>
 <path d=" M 228.4743 -17.82474 L 290.01236 -38.3224  " fill="none"/>
 <g transform="matrix(0.9487,-0.316,0.316,0.9487,290.01234,-38.32239)">
 <path d=" M 2.39996 0.0 C 1.39998 0.2 -0.4 0.59999 -1.59998 1.49997 C -0.59999 0.4 -0.59999 -0.4 -1.59998 -1.49997 C -0.4 -0.59999 1.39998 -0.2 2.39996 0.0 Z  " stroke="none"/>
  </g>
 <path d=" M 222.48793 -103.183 L 296.03212 -75.57364  " fill="none"/>
 <g transform="matrix(0.93614,0.35143,-0.35143,0.93614,296.03212,-75.57364)">
 <path d=" M 2.39996 0.0 C 1.39998 0.2 -0.4 0.59999 -1.59998 1.49997 C -0.59999 0.4 -0.59999 -0.4 -1.59998 -1.49997 C -0.4 -0.59999 1.39998 -0.2 2.39996 0.0 Z  " stroke="none"/>
  </g>
 <path d=" M 345.73239 -39.08076 L 345.73239 -20.2247  " fill="none"/>
 <g transform="matrix(0.0,1.0,-1.0,0.0,345.73239,-20.2247)">
 <path d=" M 2.39996 0.0 C 1.39998 0.2 -0.4 0.59999 -1.59998 1.49997 C -0.59999 0.4 -0.59999 -0.4 -1.59998 -1.49997 C -0.4 -0.59999 1.39998 -0.2 2.39996 0.0 Z  " stroke="none"/>
  </g>
 <path d=" M 345.73239 -74.73024 L 345.73239 -93.5863  " fill="none"/>
 <g transform="matrix(0.0,-1.0,1.0,0.0,345.73239,-93.5863)">
 <path d=" M 2.39996 0.0 C 1.39998 0.2 -0.4 0.59999 -1.59998 1.49997 C -0.59999 0.4 -0.59999 -0.4 -1.59998 -1.49997 C -0.4 -0.59999 1.39998 -0.2 2.39996 0.0 Z  " stroke="none"/>
  </g>
 </g>
 </g>
 
                                                                                                                            </g> 
</svg> 
