<?xml version="1.0" encoding="iso-8859-1" standalone="no"?> 
<?xml-stylesheet href="master_thesis.css" type="text/css"?> 
<svg xmlns="http://www.w3.org/2000/svg" xmlns:xlink="http://www.w3.org/1999/xlink" width="386.9511pt" height="149.46048pt" viewBox="-43.86746 -74.73024 386.9511 149.46048 "> 
<g transform="translate(0, 74.73024 ) scale(1,-1) translate(0,74.73024 )"> 
           <g stroke="#000" fill="#000">
 <g stroke-width="0.4">
 <path d=" M -43.66747 -17.62474 h 87.33493 v 35.24948 h -87.33493 Z  " fill="none"/>
 <g transform="translate(-39.75128,-4.13324)">
 <g fill="#000">
 <text style="stroke:none" transform="scale(1,-1) translate(39.75128,0)" text-anchor="middle"  font-size="12"> 
<g fill="#000">
 <g stroke="none"> User of services</g> </g>
 </text> 
</g>
 </g>
 <path d=" M 40.86531 39.28076 h 145.89142 v 35.24948 h -145.89142 Z  " fill="none"/>
 <g transform="translate(44.7815,53.93892)">
 <g fill="#000">
 <text style="stroke:none" transform="scale(1,-1) translate(69.02953,0)" text-anchor="middle"  font-size="12"> 
<g fill="#000">
 <g stroke="none"> Internet or mobile banking</g> </g>
 </text> 
</g>
 </g>
 <path d=" M 34.92346 -74.53024 h 157.77512 v 35.24948 h -157.77512 Z  " fill="none"/>
 <g transform="translate(38.83965,-59.87209)">
 <g fill="#000">
 <text style="stroke:none" transform="scale(1,-1) translate(74.97137,0)" text-anchor="middle"  font-size="12"> 
<g fill="#000">
 <g stroke="none"> Third-party service providers</g> </g>
 </text> 
</g>
 </g>
 <path d=" M 215.60947 39.28076 h 127.27417 v 35.24948 h -127.27417 Z  " fill="none"/>
 <g transform="translate(219.52565,52.77226)">
 <g fill="#000">
 <text style="stroke:none" transform="scale(1,-1) translate(59.7209,0)" text-anchor="middle"  font-size="12"> 
<g fill="#000">
 <g stroke="none"> Internal API of a Bank </g> </g>
 </text> 
</g>
 </g>
 <path d=" M 221.55132 -74.53024 h 119.60641 v 35.24948 h -119.60641 Z  " fill="none"/>
 <g transform="translate(225.4675,-61.03874)">
 <g fill="#000">
 <text style="stroke:none" transform="scale(1,-1) translate(55.88702,0)" text-anchor="middle"  font-size="12"> 
<g fill="#000">
 <g stroke="none"> Public API of a Bank </g> </g>
 </text> 
</g>
 </g>
 <path d=" M 35.63885 17.82474 L 76.03542 38.00816  " fill="none"/>
 <g transform="matrix(0.89452,0.44693,-0.44693,0.89452,76.03542,38.00815)">
 <path d=" M 2.39996 0.0 C 1.39998 0.2 -0.4 0.59999 -1.59998 1.49997 C -0.59999 0.4 -0.59999 -0.4 -1.59998 -1.49997 C -0.4 -0.59999 1.39998 -0.2 2.39996 0.0 Z  " stroke="none"/>
  </g>
 <path d=" M 35.63885 -17.82474 L 76.03542 -38.00816  " fill="none"/>
 <g transform="matrix(0.89452,-0.44693,0.44693,0.89452,76.03542,-38.00815)">
 <path d=" M 2.39996 0.0 C 1.39998 0.2 -0.4 0.59999 -1.59998 1.49997 C -0.59999 0.4 -0.59999 -0.4 -1.59998 -1.49997 C -0.4 -0.59999 1.39998 -0.2 2.39996 0.0 Z  " stroke="none"/>
  </g>
 <path d=" M 186.95673 56.9055 L 213.0095 56.9055  " fill="none"/>
 <g transform="translate(213.0095,56.9055)">
 <path d=" M 2.39996 0.0 C 1.39998 0.2 -0.4 0.59999 -1.59998 1.49997 C -0.59999 0.4 -0.59999 -0.4 -1.59998 -1.49997 C -0.4 -0.59999 1.39998 -0.2 2.39996 0.0 Z  " stroke="none"/>
  </g>
 <path d=" M 140.02863 39.08076 L 253.16693 -37.73277  " fill="none"/>
 <g transform="matrix(0.8273,-0.56168,0.56168,0.8273,253.16693,-37.73277)">
 <path d=" M 2.39996 0.0 C 1.39998 0.2 -0.4 0.59999 -1.59998 1.49997 C -0.59999 0.4 -0.59999 -0.4 -1.59998 -1.49997 C -0.4 -0.59999 1.39998 -0.2 2.39996 0.0 Z  " stroke="none"/>
  </g>
 <path d=" M 192.89857 -56.9055 L 218.95135 -56.9055  " fill="none"/>
 <g transform="translate(218.95135,-56.9055)">
 <path d=" M 2.39996 0.0 C 1.39998 0.2 -0.4 0.59999 -1.59998 1.49997 C -0.59999 0.4 -0.59999 -0.4 -1.59998 -1.49997 C -0.4 -0.59999 1.39998 -0.2 2.39996 0.0 Z  " stroke="none"/>
  </g>
 </g>
 </g>
 
                                                                                                   </g> 
</svg> 
