<?xml version="1.0" encoding="iso-8859-1" standalone="no"?> 
<?xml-stylesheet href="master_thesis.css" type="text/css"?> 
<svg xmlns="http://www.w3.org/2000/svg" xmlns:xlink="http://www.w3.org/1999/xlink" width="298.52103pt" height="149.66049pt" viewBox="-35.4495 -131.63576 298.52103 149.66049 "> 
<g transform="translate(0, 18.02473 ) scale(1,-1) translate(0,131.63576 )"> 
         <g stroke="#000" fill="#000">
 <g stroke-width="0.4">
 <path d=" M -35.2495 -17.62474 h 70.499 v 35.24948 h -70.499 Z  " fill="none"/>
 <g transform="translate(-17.82077,-4.13324)">
 <g fill="#000">
 <text style="stroke:none" transform="scale(1,-1) translate(17.82077,0)" text-anchor="middle"  font-size="12"> 
<g fill="#000">
 <g stroke="none"> Clients</g> </g>
 </text> 
</g>
 </g>
 <path d=" M -35.2495 -131.43576 h 70.499 v 35.24948 h -70.499 Z  " fill="none"/>
 <g transform="translate(-28.96582,-117.94426)">
 <g fill="#000">
 <text style="stroke:none" transform="scale(1,-1) translate(28.96582,0)" text-anchor="middle"  font-size="12"> 
<g fill="#000">
 <g stroke="none"> Front office</g> </g>
 </text> 
</g>
 </g>
 <path d=" M 77.09459 -131.43576 h 73.43286 v 35.24948 h -73.43286 Z  " fill="none"/>
 <g transform="translate(81.01077,-117.94426)">
 <g fill="#000">
 <text style="stroke:none" transform="scale(1,-1) translate(32.80025,0)" text-anchor="middle"  font-size="12"> 
<g fill="#000">
 <g stroke="none"> Middle office</g> </g>
 </text> 
</g>
 </g>
 <path d=" M 192.37254 -131.43576 h 70.499 v 35.24948 h -70.499 Z  " fill="none"/>
 <g transform="translate(199.96172,-117.94426)">
 <g fill="#000">
 <text style="stroke:none" transform="scale(1,-1) translate(27.66032,0)" text-anchor="middle"  font-size="12"> 
<g fill="#000">
 <g stroke="none"> Back office </g> </g>
 </text> 
</g>
 </g>
 <path d=" M 77.09459 -17.82474 h 185.77695 v 35.64948 h -185.77695 Z  " fill="none"/>
 <g transform="translate(77.09459,0.0)">
 <g fill="#000">
 <text style="stroke:none" transform="scale(1,-1) translate(92.88847,0)" text-anchor="middle"  font-size="12"> 
<g fill="#000">
 <g stroke="none">                                </g> </g>
 </text> 
</g>
 </g>
 <g transform="translate(142.94266,-2.96658)">
 <g fill="#000">
 <text style="stroke:none" transform="scale(1,-1) translate(27.0404,0)" text-anchor="middle"  font-size="12"> 
<g fill="#000">
 <g stroke="none"> Employees </g> </g>
 </text> 
</g>
 </g>
 <path d=" M 0.0 -17.82474 L 0.0 -93.58632  " fill="none"/>
 <g transform="matrix(0.0,-1.0,1.0,0.0,0.0,-93.58632)">
 <path d=" M 2.39996 0.0 C 1.39998 0.2 -0.4 0.59999 -1.59998 1.49997 C -0.59999 0.4 -0.59999 -0.4 -1.59998 -1.49997 C -0.4 -0.59999 1.39998 -0.2 2.39996 0.0 Z  " stroke="none"/>
  </g>
 <path d=" M 113.81102 -18.02473 L 113.81102 -93.58632  " fill="none"/>
 <g transform="matrix(0.0,-1.0,1.0,0.0,113.81102,-93.58632)">
 <path d=" M 2.39996 0.0 C 1.39998 0.2 -0.4 0.59999 -1.59998 1.49997 C -0.59999 0.4 -0.59999 -0.4 -1.59998 -1.49997 C -0.4 -0.59999 1.39998 -0.2 2.39996 0.0 Z  " stroke="none"/>
  </g>
 <path d=" M 227.62204 -18.02473 L 227.62204 -93.58632  " fill="none"/>
 <g transform="matrix(0.0,-1.0,1.0,0.0,227.62204,-93.58632)">
 <path d=" M 2.39996 0.0 C 1.39998 0.2 -0.4 0.59999 -1.59998 1.49997 C -0.59999 0.4 -0.59999 -0.4 -1.59998 -1.49997 C -0.4 -0.59999 1.39998 -0.2 2.39996 0.0 Z  " stroke="none"/>
  </g>
 <path d=" M 35.4495 -113.81102 L 74.49463 -113.81102  " fill="none"/>
 <g transform="translate(74.49463,-113.81102)">
 <path d=" M 2.39996 0.0 C 1.39998 0.2 -0.4 0.59999 -1.59998 1.49997 C -0.59999 0.4 -0.59999 -0.4 -1.59998 -1.49997 C -0.4 -0.59999 1.39998 -0.2 2.39996 0.0 Z  " stroke="none"/>
  </g>
 <path d=" M 150.72745 -113.81102 L 189.77258 -113.81102  " fill="none"/>
 <g transform="translate(189.77258,-113.81102)">
 <path d=" M 2.39996 0.0 C 1.39998 0.2 -0.4 0.59999 -1.59998 1.49997 C -0.59999 0.4 -0.59999 -0.4 -1.59998 -1.49997 C -0.4 -0.59999 1.39998 -0.2 2.39996 0.0 Z  " stroke="none"/>
  </g>
 </g>
 </g>
 
                                                                            </g> 
</svg> 
