<?xml version="1.0" encoding="iso-8859-1" standalone="no"?> 
<?xml-stylesheet href="master_thesis.css" type="text/css"?> 
<svg xmlns="http://www.w3.org/2000/svg" xmlns:xlink="http://www.w3.org/1999/xlink" width="413.82077pt" height="245.46443pt" viewBox="-3.91618 -120.07027 413.82077 245.46443 "> 
<g transform="translate(0, 125.39417 ) scale(1,-1) translate(0,120.07027 )"> 
 <g stroke="#000" fill="#000">
 <g stroke-width="0.4">
 <g stroke-width="0.2">
 <g stroke="#808080" fill="#808080">
 <path d=" M 0.0 -11.38191 L 0.0 -7.11412 M 0.0 125.19417 L 0.0 120.92638  " fill="none"/>
 </g>
 </g>
 <g stroke-width="0.2">
 <g stroke="#808080" fill="#808080">
 <path d="  " fill="none"/>
 </g>
 </g>
 <path d=" M 0.0 -11.38191 L 0.0 125.19417 L 409.70459 125.19417 L 409.70459 -11.38191 L 0.0 -11.38191 Z  " fill="none"/>
 <g transform="translate(0.0,-15.4981)">
 <g fill="#000">
 <text style="stroke:none" transform="scale(1,-1) translate(0.0,0)" text-anchor="middle"  font-size="12"> 
<g fill="#000">
 <g stroke="none"> </g> </g>
 </text> 
</g>
 </g>
 <clipPath id="pgfcp1"><path d=" M 0.0 -11.38191 L 409.70459 -11.38191 L 409.70459 125.19417 L 0.0 125.19417 Z  "/> </clipPath>
 <g clip-path="url(#pgfcp1)">
 <g stroke="#00f" fill="#00f">
 <g fill="#b3b3ff">
 <path d=" M 0.0 84.81226 h 327.76367 v 10.0 h -327.76367 Z  " />
 </g>
 </g>
 <g stroke="#f00" fill="#f00">
 <g fill="#ffb3b3">
 <path d=" M 0.0 68.35919 h 220.21622 v 10.0 h -220.21622 Z  " />
 </g>
 </g>
 <g stroke="#734c26" fill="#734c26">
 <g fill="#ecd9c6">
 <path d=" M 0.0 51.90613 h 179.24576 v 10.0 h -179.24576 Z  " />
 </g>
 </g>
 <g stroke="#000" fill="#000">
 <g fill="#808080">
 <path d=" M 0.0 35.45306 h 179.24576 v 10.0 h -179.24576 Z  " />
 </g>
 </g>
 <g stroke="#606" fill="#606">
 <g fill="#800080">
 <path d=" M 0.0 19.0 h 30.72784 v 10.0 h -30.72784 Z  " />
 </g>
 </g>
 </g>
 <g stroke="#00f" fill="#00f">
 <g fill="#b3b3ff">
 <g stroke="#00f" fill="#00f">
 <g fill="#b3b3ff">
 <path d="  " />
 <g transform="translate(331.87985,85.64825)">
 <g fill="#00f">
 <text style="stroke:none" transform="scale(1,-1) translate(10.77098,0)" text-anchor="middle"  font-size="12"> 
<g fill="#00f">
 <g stroke="none"> 64%</g> </g>
 </text> 
</g>
 </g>
 <path d="  " />
 </g>
 </g>
 </g>
 </g>
 <g stroke="#f00" fill="#f00">
 <g fill="#ffb3b3">
 <g stroke="#f00" fill="#f00">
 <g fill="#ffb3b3">
 <path d="  " />
 <g transform="translate(224.3324,69.19519)">
 <g fill="#f00">
 <text style="stroke:none" transform="scale(1,-1) translate(10.77098,0)" text-anchor="middle"  font-size="12"> 
<g fill="#f00">
 <g stroke="none"> 43%</g> </g>
 </text> 
</g>
 </g>
 <path d="  " />
 </g>
 </g>
 </g>
 </g>
 <g stroke="#734c26" fill="#734c26">
 <g fill="#ecd9c6">
 <g stroke="#734c26" fill="#734c26">
 <g fill="#ecd9c6">
 <path d="  " />
 <g transform="translate(183.36194,52.74213)">
 <g fill="#734c26">
 <text style="stroke:none" transform="scale(1,-1) translate(10.77098,0)" text-anchor="middle"  font-size="12"> 
<g fill="#734c26">
 <g stroke="none"> 35%</g> </g>
 </text> 
</g>
 </g>
 <path d="  " />
 </g>
 </g>
 </g>
 </g>
 <g stroke="#000" fill="#000">
 <g fill="#808080">
 <g stroke="#000" fill="#000">
 <g fill="#808080">
 <path d="  " />
 <g transform="translate(183.36194,36.28906)">
 <g fill="#000">
 <text style="stroke:none" transform="scale(1,-1) translate(10.77098,0)" text-anchor="middle"  font-size="12"> 
<g fill="#000">
 <g stroke="none"> 35%</g> </g>
 </text> 
</g>
 </g>
 <path d="  " />
 </g>
 </g>
 </g>
 </g>
 <g stroke="#606" fill="#606">
 <g fill="#800080">
 <g stroke="#606" fill="#606">
 <g fill="#800080">
 <path d="  " />
 <g transform="translate(34.84402,19.836)">
 <g fill="#606">
 <text style="stroke:none" transform="scale(1,-1) translate(7.8335,0)" text-anchor="middle"  font-size="12"> 
<g fill="#606">
 <g stroke="none"> 6% </g> </g>
 </text> 
</g>
 </g>
 <path d="  " />
 </g>
 </g>
 </g>
 </g>
 <g fill="#fff">
 <g stroke="#000">
 <g fill="#fff">
 <g stroke="#000">
 <path d=" M 109.53853 -119.87027 h 190.62753 v 74.14435 h -190.62753 Z  " />
 </g>
 </g>
 <g transform="translate(112.53853,-110.85583)">
 <g fill="#000">
 <text style="stroke:none" transform="scale(1,-1) translate(92.31377,0)" text-anchor="middle"  font-size="12"> 
<g fill="#000">
 <g stroke="#00f" fill="#00f">
 <g fill="#b3b3ff">
 <path d=" M 0.0 -3.84993 h 9.39989 v 3.0 h -9.39989 Z M 0.0 2.15007 h 7.04996 v 3.0 h -7.04996 Z  " />
 </g>
 </g>
 </g>
                    <g transform="translate(-77.4189,-3.25204)">
 <g fill="#000">
 <text style="stroke:none" transform="scale(1,-1) translate(77.4189,0)" text-anchor="middle"  font-size="12"> 
<g fill="#000">
 <g stroke="none"> Calling a service represntative</g> </g>
 </text> 
</g>
 </g>
 
<g fill="#000">
 <g stroke="#f00" fill="#f00">
 <g fill="#ffb3b3">
 <path d=" M 0.0 -3.84993 h 9.39989 v 3.0 h -9.39989 Z M 0.0 2.15007 h 7.04996 v 3.0 h -7.04996 Z  " />
 </g>
 </g>
 </g>
                          <g transform="translate(-85.41383,-3.25204)">
 <g fill="#000">
 <text style="stroke:none" transform="scale(1,-1) translate(85.41383,0)" text-anchor="middle"  font-size="12"> 
<g fill="#000">
 <g stroke="none"> Using bank’s live chat or chatbot</g> </g>
 </text> 
</g>
 </g>
 
<g fill="#000">
 <g stroke="#734c26" fill="#734c26">
 <g fill="#ecd9c6">
 <path d=" M 0.0 -3.84993 h 9.39989 v 3.0 h -9.39989 Z M 0.0 2.15007 h 7.04996 v 3.0 h -7.04996 Z  " />
 </g>
 </g>
 </g>
                          <g transform="translate(-67.63544,-3.25204)">
 <g fill="#000">
 <text style="stroke:none" transform="scale(1,-1) translate(67.63544,0)" text-anchor="middle"  font-size="12"> 
<g fill="#000">
 <g stroke="none"> Going in person to branch</g> </g>
 </text> 
</g>
 </g>
 
<g fill="#000">
 <g stroke="#000" fill="#000">
 <g fill="#808080">
 <path d=" M 0.0 -3.84993 h 9.39989 v 3.0 h -9.39989 Z M 0.0 2.15007 h 7.04996 v 3.0 h -7.04996 Z  " />
 </g>
 </g>
 </g>
                          <g transform="translate(-76.35768,-3.25204)">
 <g fill="#000">
 <text style="stroke:none" transform="scale(1,-1) translate(76.35768,0)" text-anchor="middle"  font-size="12"> 
<g fill="#000">
 <g stroke="none"> Finding an answer on website</g> </g>
 </text> 
</g>
 </g>
 
<g fill="#000">
 <g stroke="#606" fill="#606">
 <g fill="#800080">
 <path d=" M 0.0 -3.84993 h 9.39989 v 3.0 h -9.39989 Z M 0.0 2.15007 h 7.04996 v 3.0 h -7.04996 Z  " />
 </g>
 </g>
 </g>
                          <g transform="translate(-75.50908,-3.25204)">
 <g fill="#000">
 <text style="stroke:none" transform="scale(1,-1) translate(75.50908,0)" text-anchor="middle"  font-size="12"> 
<g fill="#000">
 <g stroke="none"> Reaching out on social media</g> </g>
 </text> 
</g>
 </g>
 </text> 
</g>
 </g>
 </g>
 </g>
 </g>
 </g>
 
                                                                                                          </g> 
</svg> 
